<?xml version="1.0" encoding="utf-8"?>
<svg viewBox="0 0 500 1600" xmlns="http://www.w3.org/2000/svg" xmlns:bx="https://boxy-svg.com">
  <rect x="131.523" y="15.037" width="234.694" height="1558.82" style="fill: none; stroke: rgb(0, 0, 0); stroke-width: 16px;"/>
  <path d="M 556 194 m -34.4 0 a 34.4 34.4 0 1 0 68.8 0 a 34.4 34.4 0 1 0 -68.8 0 Z M 556 194 m -27.863 0 a 27.863 27.863 0 0 1 55.726 0 a 27.863 27.863 0 0 1 -55.726 0 Z" style="fill: rgb(255, 0, 0);" transform="matrix(-0.731608, 0.681726, -0.681726, -0.731608, 826.644671, -177.570072)" bx:shape="ring 556 194 27.863 27.863 34.4 34.4 1@652645be"/>
  <text style="white-space: pre; fill: rgb(51, 51, 51); font-family: Arial, sans-serif; font-size: 32px;" x="278.716" y="70.693">2</text>
  <rect x="338.523" y="37.484" width="116.683" height="42.898" rx="4" ry="4" style="fill: rgb(255, 0, 0);"/>
  <text style="font-family: Arial, sans-serif; font-size: 14.1px; white-space: pre;" transform="matrix(1.43367, 0, 0, 1.41247, -88.696854, -17.05307)" x="303.494" y="54.19">5V</text>
  <text style="fill: rgb(243, 243, 243); font-family: Arial, sans-serif; font-size: 14.1px; white-space: pre;" transform="matrix(0.881301, 0, 0, 0.730573, 80.750931, 20.371204)" x="322.382" y="72.575">Power</text>
  <path d="M 788 136 m -8.24 0 a 8.24 8.24 0 1 0 16.48 0 a 8.24 8.24 0 1 0 -16.48 0 Z M 788 136 m -4.844 0 a 4.844 4.844 0 0 1 9.688 0 a 4.844 4.844 0 0 1 -9.688 0 Z" style="fill: rgb(207, 180, 1); stroke-width: 2px;" transform="matrix(-0.588172, 0.808736, -0.808736, -0.588172, 1029.095866, -498.270948)" bx:shape="ring 788 136 4.844 4.844 8.24 8.24 1@77eb386c"/>
  <path d="M 556 194 m -34.4 0 a 34.4 34.4 0 1 0 68.8 0 a 34.4 34.4 0 1 0 -68.8 0 Z M 556 194 m -27.863 0 a 27.863 27.863 0 0 1 55.726 0 a 27.863 27.863 0 0 1 -55.726 0 Z" style="fill: rgb(255, 0, 0);" transform="matrix(-0.731608, 0.681726, -0.681726, -0.731608, 826.644671, -100.283504)" bx:shape="ring 556 194 27.863 27.863 34.4 34.4 1@652645be"/>
  <text style="white-space: pre; fill: rgb(51, 51, 51); font-family: Arial, sans-serif; font-size: 32px;" x="278.716" y="147.98">4</text>
  <rect x="338.523" y="114.771" width="116.683" height="42.898" rx="4" ry="4" style="fill: rgb(255, 0, 0);"/>
  <text style="font-family: Arial, sans-serif; font-size: 14.1px; white-space: pre;" transform="matrix(1.43367, 0, 0, 1.41247, -88.696854, 60.233498)" x="303.494" y="54.19">5V</text>
  <text style="fill: rgb(243, 243, 243); font-family: Arial, sans-serif; font-size: 14.1px; white-space: pre;" transform="matrix(0.881301, 0, 0, 0.730573, 80.750931, 97.657776)" x="322.382" y="72.575">Power</text>
  <path d="M 788 136 m -8.24 0 a 8.24 8.24 0 1 0 16.48 0 a 8.24 8.24 0 1 0 -16.48 0 Z M 788 136 m -4.844 0 a 4.844 4.844 0 0 1 9.688 0 a 4.844 4.844 0 0 1 -9.688 0 Z" style="fill: rgb(207, 180, 1); stroke-width: 2px;" transform="matrix(-0.588172, 0.808736, -0.808736, -0.588172, 1029.095866, -420.984388)" bx:shape="ring 788 136 4.844 4.844 8.24 8.24 1@77eb386c"/>
  <path d="M 556 194 m -34.4 0 a 34.4 34.4 0 1 0 68.8 0 a 34.4 34.4 0 1 0 -68.8 0 Z M 556 194 m -27.863 0 a 27.863 27.863 0 0 1 55.726 0 a 27.863 27.863 0 0 1 -55.726 0 Z" style="fill: rgb(216, 216, 216);" transform="matrix(-0.731608, 0.681726, -0.681726, -0.731608, 826.644671, -22.996937)" bx:shape="ring 556 194 27.863 27.863 34.4 34.4 1@652645be"/>
  <text style="white-space: pre; fill: rgb(51, 51, 51); font-family: Arial, sans-serif; font-size: 32px;" x="278.716" y="225.266">6</text>
  <rect x="338.523" y="192.057" width="116.683" height="42.898" rx="4" ry="4" style="fill: rgb(216, 216, 216);"/>
  <text style="white-space: pre; fill: rgb(51, 51, 51); font-family: Arial, sans-serif; font-size: 14.1px;" x="303.494" y="54.19" transform="matrix(1.43367, 0, 0, 1.41247, -88.696854, 137.520065)">Ground</text>
  <path d="M 788 136 m -8.24 0 a 8.24 8.24 0 1 0 16.48 0 a 8.24 8.24 0 1 0 -16.48 0 Z M 788 136 m -4.844 0 a 4.844 4.844 0 0 1 9.688 0 a 4.844 4.844 0 0 1 -9.688 0 Z" style="fill: rgb(207, 180, 1); stroke-width: 2px;" transform="matrix(-0.588172, 0.808736, -0.808736, -0.588172, 1029.095866, -343.697827)" bx:shape="ring 788 136 4.844 4.844 8.24 8.24 1@77eb386c"/>
  <path d="M 556 194 m -34.4 0 a 34.4 34.4 0 1 0 68.8 0 a 34.4 34.4 0 1 0 -68.8 0 Z M 556 194 m -27.863 0 a 27.863 27.863 0 0 1 55.726 0 a 27.863 27.863 0 0 1 -55.726 0 Z" style="fill: rgb(82, 1, 175);" transform="matrix(-0.731608, 0.681726, -0.681726, -0.731608, 826.644671, 54.289639)" bx:shape="ring 556 194 27.863 27.863 34.4 34.4 1@652645be"/>
  <text style="white-space: pre; fill: rgb(51, 51, 51); font-family: Arial, sans-serif; font-size: 32px;" x="278.716" y="302.553">8</text>
  <rect x="338.523" y="269.344" width="116.683" height="42.898" rx="4" ry="4" style="fill: rgb(82, 1, 175);"/>
  <text style="fill: rgb(255, 255, 255); font-family: Arial, sans-serif; font-size: 14.1px; white-space: pre;" transform="matrix(1.43367, 0, 0, 1.41247, -88.696854, 214.806641)" x="303.494" y="54.19">GPIO14</text>
  <text style="fill: rgb(179, 179, 179); font-family: Arial, sans-serif; font-size: 14.1px; white-space: pre;" transform="matrix(0.881301, 0, 0, 0.730573, 80.750931, 252.230911)" x="322.382" y="72.575">UART0_TXD</text>
  <path d="M 788 136 m -8.24 0 a 8.24 8.24 0 1 0 16.48 0 a 8.24 8.24 0 1 0 -16.48 0 Z M 788 136 m -4.844 0 a 4.844 4.844 0 0 1 9.688 0 a 4.844 4.844 0 0 1 -9.688 0 Z" style="fill: rgb(207, 180, 1); stroke-width: 2px;" transform="matrix(-0.588172, 0.808736, -0.808736, -0.588172, 1029.095866, -266.411237)" bx:shape="ring 788 136 4.844 4.844 8.24 8.24 1@77eb386c"/>
  <path d="M 556 194 m -34.4 0 a 34.4 34.4 0 1 0 68.8 0 a 34.4 34.4 0 1 0 -68.8 0 Z M 556 194 m -27.863 0 a 27.863 27.863 0 0 1 55.726 0 a 27.863 27.863 0 0 1 -55.726 0 Z" style="fill: rgb(82, 1, 175);" transform="matrix(-0.731608, 0.681726, -0.681726, -0.731608, 826.644671, 131.576199)" bx:shape="ring 556 194 27.863 27.863 34.4 34.4 1@652645be"/>
  <text style="white-space: pre; fill: rgb(51, 51, 51); font-family: Arial, sans-serif; font-size: 32px;" x="268.716" y="379.839">10</text>
  <rect x="338.523" y="346.63" width="116.683" height="42.898" rx="4" ry="4" style="fill: rgb(82, 1, 175);"/>
  <text style="fill: rgb(255, 255, 255); font-family: Arial, sans-serif; font-size: 14.1px; white-space: pre;" transform="matrix(1.43367, 0, 0, 1.41247, -88.696854, 292.093201)" x="303.494" y="54.19">GPIO15</text>
  <text style="fill: rgb(179, 179, 179); font-family: Arial, sans-serif; font-size: 14.1px; white-space: pre;" transform="matrix(0.881301, 0, 0, 0.730573, 80.750931, 329.517487)" x="322.382" y="72.575">UART0_RXD</text>
  <path d="M 788 136 m -8.24 0 a 8.24 8.24 0 1 0 16.48 0 a 8.24 8.24 0 1 0 -16.48 0 Z M 788 136 m -4.844 0 a 4.844 4.844 0 0 1 9.688 0 a 4.844 4.844 0 0 1 -9.688 0 Z" style="fill: rgb(207, 180, 1); stroke-width: 2px;" transform="matrix(-0.588172, 0.808736, -0.808736, -0.588172, 1029.095866, -189.124677)" bx:shape="ring 788 136 4.844 4.844 8.24 8.24 1@77eb386c"/>
  <path d="M 556 194 m -34.4 0 a 34.4 34.4 0 1 0 68.8 0 a 34.4 34.4 0 1 0 -68.8 0 Z M 556 194 m -27.863 0 a 27.863 27.863 0 0 1 55.726 0 a 27.863 27.863 0 0 1 -55.726 0 Z" style="fill: rgb(0, 149, 7);" transform="matrix(-0.731608, 0.681726, -0.681726, -0.731608, 826.644671, 208.862759)" bx:shape="ring 556 194 27.863 27.863 34.4 34.4 1@652645be"/>
  <text style="white-space: pre; fill: rgb(51, 51, 51); font-family: Arial, sans-serif; font-size: 32px;" x="268.716" y="457.126">12</text>
  <rect x="338.523" y="423.917" width="116.683" height="42.898" rx="4" ry="4" style="fill: rgb(0, 149, 7);"/>
  <text style="white-space: pre; fill: rgb(51, 51, 51); font-family: Arial, sans-serif; font-size: 14.1px;" x="303.494" y="54.19" transform="matrix(1.43367, 0, 0, 1.41247, -88.696854, 369.379761)">GPIO18</text>
  <text style="fill: rgb(104, 104, 104); font-family: Arial, sans-serif; font-size: 14.1px; white-space: pre;" x="322.382" y="72.575" transform="matrix(0.881301, 0, 0, 0.730573, 80.750931, 406.804047)">PCM_CLK</text>
  <path d="M 788 136 m -8.24 0 a 8.24 8.24 0 1 0 16.48 0 a 8.24 8.24 0 1 0 -16.48 0 Z M 788 136 m -4.844 0 a 4.844 4.844 0 0 1 9.688 0 a 4.844 4.844 0 0 1 -9.688 0 Z" style="fill: rgb(207, 180, 1); stroke-width: 2px;" transform="matrix(-0.588172, 0.808736, -0.808736, -0.588172, 1029.095866, -111.838117)" bx:shape="ring 788 136 4.844 4.844 8.24 8.24 1@77eb386c"/>
  <path d="M 556 194 m -34.4 0 a 34.4 34.4 0 1 0 68.8 0 a 34.4 34.4 0 1 0 -68.8 0 Z M 556 194 m -27.863 0 a 27.863 27.863 0 0 1 55.726 0 a 27.863 27.863 0 0 1 -55.726 0 Z" style="fill: rgb(216, 216, 216);" transform="matrix(-0.731608, 0.681726, -0.681726, -0.731608, 826.644671, 286.149365)" bx:shape="ring 556 194 27.863 27.863 34.4 34.4 1@652645be"/>
  <text style="white-space: pre; fill: rgb(51, 51, 51); font-family: Arial, sans-serif; font-size: 32px;" x="268.716" y="534.412">14</text>
  <rect x="338.523" y="501.203" width="116.683" height="42.898" rx="4" ry="4" style="fill: rgb(216, 216, 216);"/>
  <text style="white-space: pre; fill: rgb(51, 51, 51); font-family: Arial, sans-serif; font-size: 14.1px;" x="303.494" y="54.19" transform="matrix(1.43367, 0, 0, 1.41247, -88.696854, 446.666351)">Ground</text>
  <path d="M 788 136 m -8.24 0 a 8.24 8.24 0 1 0 16.48 0 a 8.24 8.24 0 1 0 -16.48 0 Z M 788 136 m -4.844 0 a 4.844 4.844 0 0 1 9.688 0 a 4.844 4.844 0 0 1 -9.688 0 Z" style="fill: rgb(207, 180, 1); stroke-width: 2px;" transform="matrix(-0.588172, 0.808736, -0.808736, -0.588172, 1029.095866, -34.551526)" bx:shape="ring 788 136 4.844 4.844 8.24 8.24 1@77eb386c"/>
  <path d="M 556 194 m -34.4 0 a 34.4 34.4 0 1 0 68.8 0 a 34.4 34.4 0 1 0 -68.8 0 Z M 556 194 m -27.863 0 a 27.863 27.863 0 0 1 55.726 0 a 27.863 27.863 0 0 1 -55.726 0 Z" style="fill: rgb(0, 149, 7);" transform="matrix(-0.731608, 0.681726, -0.681726, -0.731608, 826.644671, 363.435925)" bx:shape="ring 556 194 27.863 27.863 34.4 34.4 1@652645be"/>
  <text style="white-space: pre; fill: rgb(51, 51, 51); font-family: Arial, sans-serif; font-size: 32px;" x="268.716" y="611.699">16</text>
  <rect x="338.523" y="578.49" width="116.683" height="42.898" rx="4" ry="4" style="fill: rgb(0, 149, 7);"/>
  <text style="white-space: pre; fill: rgb(51, 51, 51); font-family: Arial, sans-serif; font-size: 14.1px;" x="303.494" y="54.19" transform="matrix(1.43367, 0, 0, 1.41247, -88.696854, 523.952881)">GPIO23</text>
  <path d="M 788 136 m -8.24 0 a 8.24 8.24 0 1 0 16.48 0 a 8.24 8.24 0 1 0 -16.48 0 Z M 788 136 m -4.844 0 a 4.844 4.844 0 0 1 9.688 0 a 4.844 4.844 0 0 1 -9.688 0 Z" style="fill: rgb(207, 180, 1); stroke-width: 2px;" transform="matrix(-0.588172, 0.808736, -0.808736, -0.588172, 1029.095866, 42.735034)" bx:shape="ring 788 136 4.844 4.844 8.24 8.24 1@77eb386c"/>
  <path d="M 556 194 m -34.4 0 a 34.4 34.4 0 1 0 68.8 0 a 34.4 34.4 0 1 0 -68.8 0 Z M 556 194 m -27.863 0 a 27.863 27.863 0 0 1 55.726 0 a 27.863 27.863 0 0 1 -55.726 0 Z" style="fill: rgb(0, 149, 7);" transform="matrix(-0.731608, 0.681726, -0.681726, -0.731608, 826.644671, 440.722454)" bx:shape="ring 556 194 27.863 27.863 34.4 34.4 1@652645be"/>
  <text style="white-space: pre; fill: rgb(51, 51, 51); font-family: Arial, sans-serif; font-size: 32px;" x="268.716" y="688.986">18</text>
  <rect x="338.523" y="655.777" width="116.683" height="42.898" rx="4" ry="4" style="fill: rgb(0, 149, 7);"/>
  <text style="white-space: pre; fill: rgb(51, 51, 51); font-family: Arial, sans-serif; font-size: 14.1px;" x="303.494" y="54.19" transform="matrix(1.43367, 0, 0, 1.41247, -88.696854, 601.239502)">GPIO24</text>
  <path d="M 788 136 m -8.24 0 a 8.24 8.24 0 1 0 16.48 0 a 8.24 8.24 0 1 0 -16.48 0 Z M 788 136 m -4.844 0 a 4.844 4.844 0 0 1 9.688 0 a 4.844 4.844 0 0 1 -9.688 0 Z" style="fill: rgb(207, 180, 1); stroke-width: 2px;" transform="matrix(-0.588172, 0.808736, -0.808736, -0.588172, 1029.095866, 120.021594)" bx:shape="ring 788 136 4.844 4.844 8.24 8.24 1@77eb386c"/>
  <path d="M 556 194 m -34.4 0 a 34.4 34.4 0 1 0 68.8 0 a 34.4 34.4 0 1 0 -68.8 0 Z M 556 194 m -27.863 0 a 27.863 27.863 0 0 1 55.726 0 a 27.863 27.863 0 0 1 -55.726 0 Z" style="fill: rgb(216, 216, 216);" transform="matrix(-0.731608, 0.681726, -0.681726, -0.731608, 826.644671, 518.009045)" bx:shape="ring 556 194 27.863 27.863 34.4 34.4 1@652645be"/>
  <text style="white-space: pre; fill: rgb(51, 51, 51); font-family: Arial, sans-serif; font-size: 32px;" x="268.716" y="766.272">20</text>
  <rect x="338.523" y="733.063" width="116.683" height="42.898" rx="4" ry="4" style="fill: rgb(216, 216, 216);"/>
  <text style="white-space: pre; fill: rgb(51, 51, 51); font-family: Arial, sans-serif; font-size: 14.1px;" x="303.494" y="54.19" transform="matrix(1.43367, 0, 0, 1.41247, -88.696854, 678.526001)">Ground</text>
  <path d="M 788 136 m -8.24 0 a 8.24 8.24 0 1 0 16.48 0 a 8.24 8.24 0 1 0 -16.48 0 Z M 788 136 m -4.844 0 a 4.844 4.844 0 0 1 9.688 0 a 4.844 4.844 0 0 1 -9.688 0 Z" style="fill: rgb(207, 180, 1); stroke-width: 2px;" transform="matrix(-0.588172, 0.808736, -0.808736, -0.588172, 1029.095866, 197.308154)" bx:shape="ring 788 136 4.844 4.844 8.24 8.24 1@77eb386c"/>
  <path d="M 556 194 m -34.4 0 a 34.4 34.4 0 1 0 68.8 0 a 34.4 34.4 0 1 0 -68.8 0 Z M 556 194 m -27.863 0 a 27.863 27.863 0 0 1 55.726 0 a 27.863 27.863 0 0 1 -55.726 0 Z" style="fill: rgb(0, 149, 7);" transform="matrix(-0.731608, 0.681726, -0.681726, -0.731608, 826.232501, 594.042126)" bx:shape="ring 556 194 27.863 27.863 34.4 34.4 1@652645be"/>
  <text style="white-space: pre; fill: rgb(51, 51, 51); font-family: Arial, sans-serif; font-size: 32px;" x="268.304" y="842.305">22</text>
  <rect x="338.111" y="809.096" width="116.683" height="42.898" rx="4" ry="4" style="fill: rgb(0, 149, 7);"/>
  <text style="white-space: pre; fill: rgb(51, 51, 51); font-family: Arial, sans-serif; font-size: 14.1px;" x="303.494" y="54.19" transform="matrix(1.43367, 0, 0, 1.41247, -89.109032, 754.559143)">GPIO25</text>
  <path d="M 788 136 m -8.24 0 a 8.24 8.24 0 1 0 16.48 0 a 8.24 8.24 0 1 0 -16.48 0 Z M 788 136 m -4.844 0 a 4.844 4.844 0 0 1 9.688 0 a 4.844 4.844 0 0 1 -9.688 0 Z" style="fill: rgb(207, 180, 1); stroke-width: 2px;" transform="matrix(-0.588172, 0.808736, -0.808736, -0.588172, 1028.683757, 273.341235)" bx:shape="ring 788 136 4.844 4.844 8.24 8.24 1@77eb386c"/>
  <path d="M 556 194 m -34.4 0 a 34.4 34.4 0 1 0 68.8 0 a 34.4 34.4 0 1 0 -68.8 0 Z M 556 194 m -27.863 0 a 27.863 27.863 0 0 1 55.726 0 a 27.863 27.863 0 0 1 -55.726 0 Z" style="fill: rgb(17, 21, 255);" transform="matrix(-0.731608, 0.681726, -0.681726, -0.731608, 826.232501, 671.328686)" bx:shape="ring 556 194 27.863 27.863 34.4 34.4 1@652645be"/>
  <text style="white-space: pre; fill: rgb(51, 51, 51); font-family: Arial, sans-serif; font-size: 32px;" x="268.304" y="919.592">24</text>
  <rect x="338.111" y="886.383" width="116.683" height="42.898" rx="4" ry="4" style="fill: rgb(17, 21, 255);"/>
  <text style="fill: rgb(243, 243, 243); font-family: Arial, sans-serif; font-size: 14.1px; white-space: pre;" transform="matrix(1.43367, 0, 0, 1.41247, -89.109032, 831.845703)" x="303.494" y="54.19">GPIO8</text>
  <text style="fill: rgb(179, 179, 179); font-family: Arial, sans-serif; font-size: 14.1px; white-space: pre;" transform="matrix(0.881301, 0, 0, 0.730573, 70.338745, 869.269958)" x="322.382" y="72.575">SPI0_CE0_N</text>
  <path d="M 788 136 m -8.24 0 a 8.24 8.24 0 1 0 16.48 0 a 8.24 8.24 0 1 0 -16.48 0 Z M 788 136 m -4.844 0 a 4.844 4.844 0 0 1 9.688 0 a 4.844 4.844 0 0 1 -9.688 0 Z" style="fill: rgb(207, 180, 1); stroke-width: 2px;" transform="matrix(-0.588172, 0.808736, -0.808736, -0.588172, 1028.683757, 350.627795)" bx:shape="ring 788 136 4.844 4.844 8.24 8.24 1@77eb386c"/>
  <path d="M 556 194 m -34.4 0 a 34.4 34.4 0 1 0 68.8 0 a 34.4 34.4 0 1 0 -68.8 0 Z M 556 194 m -27.863 0 a 27.863 27.863 0 0 1 55.726 0 a 27.863 27.863 0 0 1 -55.726 0 Z" style="fill: rgb(17, 21, 255);" transform="matrix(-0.731608, 0.681726, -0.681726, -0.731608, 826.232501, 748.615246)" bx:shape="ring 556 194 27.863 27.863 34.4 34.4 1@652645be"/>
  <text style="white-space: pre; fill: rgb(51, 51, 51); font-family: Arial, sans-serif; font-size: 32px;" x="268.304" y="996.878">26</text>
  <rect x="338.111" y="963.669" width="116.683" height="42.898" rx="4" ry="4" style="fill: rgb(17, 21, 255);"/>
  <text style="fill: rgb(243, 243, 243); font-family: Arial, sans-serif; font-size: 14.1px; white-space: pre;" transform="matrix(1.43367, 0, 0, 1.41247, -89.109032, 909.132202)" x="303.494" y="54.19">GPIO7</text>
  <text style="fill: rgb(179, 179, 179); font-family: Arial, sans-serif; font-size: 14.1px; white-space: pre;" transform="matrix(0.881301, 0, 0, 0.730573, 70.338745, 946.556519)" x="322.382" y="72.575">SPI0_CE1_N</text>
  <path d="M 788 136 m -8.24 0 a 8.24 8.24 0 1 0 16.48 0 a 8.24 8.24 0 1 0 -16.48 0 Z M 788 136 m -4.844 0 a 4.844 4.844 0 0 1 9.688 0 a 4.844 4.844 0 0 1 -9.688 0 Z" style="fill: rgb(207, 180, 1); stroke-width: 2px;" transform="matrix(-0.588172, 0.808736, -0.808736, -0.588172, 1028.683757, 427.914355)" bx:shape="ring 788 136 4.844 4.844 8.24 8.24 1@77eb386c"/>
  <path d="M 556 194 m -34.4 0 a 34.4 34.4 0 1 0 68.8 0 a 34.4 34.4 0 1 0 -68.8 0 Z M 556 194 m -27.863 0 a 27.863 27.863 0 0 1 55.726 0 a 27.863 27.863 0 0 1 -55.726 0 Z" style="fill: rgb(255, 247, 0);" transform="matrix(-0.731608, 0.681726, -0.681726, -0.731608, 826.232501, 825.901806)" bx:shape="ring 556 194 27.863 27.863 34.4 34.4 1@652645be"/>
  <text style="white-space: pre; fill: rgb(51, 51, 51); font-family: Arial, sans-serif; font-size: 32px;" x="268.304" y="1074.165">28</text>
  <rect x="338.111" y="1040.956" width="116.683" height="42.898" rx="4" ry="4" style="fill: rgb(255, 247, 0);"/>
  <text style="white-space: pre; fill: rgb(51, 51, 51); font-family: Arial, sans-serif; font-size: 14.1px;" x="303.494" y="54.19" transform="matrix(1.43367, 0, 0, 1.41247, -89.109032, 986.418762)">ID_SC</text>
  <text style="fill: rgb(104, 104, 104); font-family: Arial, sans-serif; font-size: 14.1px; white-space: pre;" x="322.382" y="72.575" transform="matrix(0.881301, 0, 0, 0.730573, 67.338745, 1023.843079)">I2C ID EEPROM</text>
  <path d="M 788 136 m -8.24 0 a 8.24 8.24 0 1 0 16.48 0 a 8.24 8.24 0 1 0 -16.48 0 Z M 788 136 m -4.844 0 a 4.844 4.844 0 0 1 9.688 0 a 4.844 4.844 0 0 1 -9.688 0 Z" style="fill: rgb(207, 180, 1); stroke-width: 2px;" transform="matrix(-0.588172, 0.808736, -0.808736, -0.588172, 1028.683757, 505.200915)" bx:shape="ring 788 136 4.844 4.844 8.24 8.24 1@77eb386c"/>
  <path d="M 556 194 m -34.4 0 a 34.4 34.4 0 1 0 68.8 0 a 34.4 34.4 0 1 0 -68.8 0 Z M 556 194 m -27.863 0 a 27.863 27.863 0 0 1 55.726 0 a 27.863 27.863 0 0 1 -55.726 0 Z" style="fill: rgb(216, 216, 216);" transform="matrix(-0.731608, 0.681726, -0.681726, -0.731608, 826.232501, 903.188366)" bx:shape="ring 556 194 27.863 27.863 34.4 34.4 1@652645be"/>
  <text style="white-space: pre; fill: rgb(51, 51, 51); font-family: Arial, sans-serif; font-size: 32px;" x="268.304" y="1151.451">30</text>
  <rect x="338.111" y="1118.242" width="116.683" height="42.898" rx="4" ry="4" style="fill: rgb(216, 216, 216);"/>
  <text style="white-space: pre; fill: rgb(51, 51, 51); font-family: Arial, sans-serif; font-size: 14.1px;" x="303.494" y="54.19" transform="matrix(1.43367, 0, 0, 1.41247, -89.109032, 1063.705322)">Ground</text>
  <path d="M 788 136 m -8.24 0 a 8.24 8.24 0 1 0 16.48 0 a 8.24 8.24 0 1 0 -16.48 0 Z M 788 136 m -4.844 0 a 4.844 4.844 0 0 1 9.688 0 a 4.844 4.844 0 0 1 -9.688 0 Z" style="fill: rgb(207, 180, 1); stroke-width: 2px;" transform="matrix(-0.588172, 0.808736, -0.808736, -0.588172, 1028.683757, 582.487506)" bx:shape="ring 788 136 4.844 4.844 8.24 8.24 1@77eb386c"/>
  <path d="M 556 194 m -34.4 0 a 34.4 34.4 0 1 0 68.8 0 a 34.4 34.4 0 1 0 -68.8 0 Z M 556 194 m -27.863 0 a 27.863 27.863 0 0 1 55.726 0 a 27.863 27.863 0 0 1 -55.726 0 Z" style="fill: rgb(0, 149, 7);" transform="matrix(-0.731608, 0.681726, -0.681726, -0.731608, 826.232501, 980.474987)" bx:shape="ring 556 194 27.863 27.863 34.4 34.4 1@652645be"/>
  <text style="white-space: pre; fill: rgb(51, 51, 51); font-family: Arial, sans-serif; font-size: 32px;" x="268.304" y="1228.738">32</text>
  <rect x="338.111" y="1195.529" width="116.683" height="42.898" rx="4" ry="4" style="fill: rgb(0, 149, 7);"/>
  <text style="white-space: pre; fill: rgb(51, 51, 51); font-family: Arial, sans-serif; font-size: 14.1px;" x="303.494" y="54.19" transform="matrix(1.43367, 0, 0, 1.41247, -89.109032, 1140.991943)">GPIO12</text>
  <path d="M 788 136 m -8.24 0 a 8.24 8.24 0 1 0 16.48 0 a 8.24 8.24 0 1 0 -16.48 0 Z M 788 136 m -4.844 0 a 4.844 4.844 0 0 1 9.688 0 a 4.844 4.844 0 0 1 -9.688 0 Z" style="fill: rgb(207, 180, 1); stroke-width: 2px;" transform="matrix(-0.588172, 0.808736, -0.808736, -0.588172, 1028.683757, 659.774127)" bx:shape="ring 788 136 4.844 4.844 8.24 8.24 1@77eb386c"/>
  <path d="M 556 194 m -34.4 0 a 34.4 34.4 0 1 0 68.8 0 a 34.4 34.4 0 1 0 -68.8 0 Z M 556 194 m -27.863 0 a 27.863 27.863 0 0 1 55.726 0 a 27.863 27.863 0 0 1 -55.726 0 Z" style="fill: rgb(216, 216, 216);" transform="matrix(-0.731608, 0.681726, -0.681726, -0.731608, 826.232501, 1057.761425)" bx:shape="ring 556 194 27.863 27.863 34.4 34.4 1@652645be"/>
  <text style="white-space: pre; fill: rgb(51, 51, 51); font-family: Arial, sans-serif; font-size: 32px;" x="268.304" y="1306.025">34 </text>
  <rect x="338.111" y="1272.816" width="116.683" height="42.898" rx="4" ry="4" style="fill: rgb(216, 216, 216);"/>
  <text style="white-space: pre; fill: rgb(51, 51, 51); font-family: Arial, sans-serif; font-size: 14.1px;" x="303.494" y="54.19" transform="matrix(1.43367, 0, 0, 1.41247, -89.109032, 1218.278442)">Ground</text>
  <path d="M 788 136 m -8.24 0 a 8.24 8.24 0 1 0 16.48 0 a 8.24 8.24 0 1 0 -16.48 0 Z M 788 136 m -4.844 0 a 4.844 4.844 0 0 1 9.688 0 a 4.844 4.844 0 0 1 -9.688 0 Z" style="fill: rgb(207, 180, 1); stroke-width: 2px;" transform="matrix(-0.588172, 0.808736, -0.808736, -0.588172, 1028.683757, 737.060626)" bx:shape="ring 788 136 4.844 4.844 8.24 8.24 1@77eb386c"/>
  <path d="M 556 194 m -34.4 0 a 34.4 34.4 0 1 0 68.8 0 a 34.4 34.4 0 1 0 -68.8 0 Z M 556 194 m -27.863 0 a 27.863 27.863 0 0 1 55.726 0 a 27.863 27.863 0 0 1 -55.726 0 Z" style="fill: rgb(0, 149, 7);" transform="matrix(-0.731608, 0.681726, -0.681726, -0.731608, 826.232501, 1135.048046)" bx:shape="ring 556 194 27.863 27.863 34.4 34.4 1@652645be"/>
  <text style="white-space: pre; fill: rgb(51, 51, 51); font-family: Arial, sans-serif; font-size: 32px;" x="268.304" y="1383.311">36</text>
  <rect x="338.111" y="1350.102" width="116.683" height="42.898" rx="4" ry="4" style="fill: rgb(0, 149, 7);"/>
  <text style="white-space: pre; fill: rgb(51, 51, 51); font-family: Arial, sans-serif; font-size: 14.1px;" x="303.494" y="54.19" transform="matrix(1.43367, 0, 0, 1.41247, -89.109032, 1295.565063)">GPIO16</text>
  <path d="M 788 136 m -8.24 0 a 8.24 8.24 0 1 0 16.48 0 a 8.24 8.24 0 1 0 -16.48 0 Z M 788 136 m -4.844 0 a 4.844 4.844 0 0 1 9.688 0 a 4.844 4.844 0 0 1 -9.688 0 Z" style="fill: rgb(207, 180, 1); stroke-width: 2px;" transform="matrix(-0.588172, 0.808736, -0.808736, -0.588172, 1028.683757, 814.347247)" bx:shape="ring 788 136 4.844 4.844 8.24 8.24 1@77eb386c"/>
  <path d="M 556 194 m -34.4 0 a 34.4 34.4 0 1 0 68.8 0 a 34.4 34.4 0 1 0 -68.8 0 Z M 556 194 m -27.863 0 a 27.863 27.863 0 0 1 55.726 0 a 27.863 27.863 0 0 1 -55.726 0 Z" style="fill: rgb(0, 149, 7);" transform="matrix(-0.731608, 0.681726, -0.681726, -0.731608, 826.232501, 1212.334545)" bx:shape="ring 556 194 27.863 27.863 34.4 34.4 1@652645be"/>
  <text style="white-space: pre; fill: rgb(51, 51, 51); font-family: Arial, sans-serif; font-size: 32px;" x="268.304" y="1460.598">38</text>
  <rect x="338.111" y="1427.389" width="116.683" height="42.898" rx="4" ry="4" style="fill: rgb(0, 149, 7);"/>
  <text style="white-space: pre; fill: rgb(51, 51, 51); font-family: Arial, sans-serif; font-size: 14.1px;" x="303.494" y="54.19" transform="matrix(1.43367, 0, 0, 1.41247, -89.109032, 1372.851563)">GPIO20</text>
  <path d="M 788 136 m -8.24 0 a 8.24 8.24 0 1 0 16.48 0 a 8.24 8.24 0 1 0 -16.48 0 Z M 788 136 m -4.844 0 a 4.844 4.844 0 0 1 9.688 0 a 4.844 4.844 0 0 1 -9.688 0 Z" style="fill: rgb(207, 180, 1); stroke-width: 2px;" transform="matrix(-0.588172, 0.808736, -0.808736, -0.588172, 1028.683757, 891.633746)" bx:shape="ring 788 136 4.844 4.844 8.24 8.24 1@77eb386c"/>
  <path d="M 556 194 m -34.4 0 a 34.4 34.4 0 1 0 68.8 0 a 34.4 34.4 0 1 0 -68.8 0 Z M 556 194 m -27.863 0 a 27.863 27.863 0 0 1 55.726 0 a 27.863 27.863 0 0 1 -55.726 0 Z" style="fill: rgb(0, 149, 7);" transform="matrix(-0.731608, 0.681726, -0.681726, -0.731608, 826.232501, 1289.621044)" bx:shape="ring 556 194 27.863 27.863 34.4 34.4 1@652645be"/>
  <text style="white-space: pre; fill: rgb(51, 51, 51); font-family: Arial, sans-serif; font-size: 32px;" x="268.304" y="1537.884">40</text>
  <rect x="338.111" y="1504.675" width="116.683" height="42.898" rx="4" ry="4" style="fill: rgb(0, 149, 7);"/>
  <text style="white-space: pre; fill: rgb(51, 51, 51); font-family: Arial, sans-serif; font-size: 14.1px;" x="303.494" y="54.19" transform="matrix(1.43367, 0, 0, 1.41247, -89.109032, 1450.138062)">GPIO21</text>
  <path d="M 788 136 m -8.24 0 a 8.24 8.24 0 1 0 16.48 0 a 8.24 8.24 0 1 0 -16.48 0 Z M 788 136 m -4.844 0 a 4.844 4.844 0 0 1 9.688 0 a 4.844 4.844 0 0 1 -9.688 0 Z" style="fill: rgb(207, 180, 1); stroke-width: 2px;" transform="matrix(-0.588172, 0.808736, -0.808736, -0.588172, 1028.683757, 968.920245)" bx:shape="ring 788 136 4.844 4.844 8.24 8.24 1@77eb386c"/>
  <text style="white-space: pre; fill: rgb(51, 51, 51); font-family: Arial, sans-serif; font-size: 32px;" x="198.146" y="70.856">1</text>
  <rect x="37.953" y="37.647" width="116.683" height="42.898" rx="4" ry="4" style="fill: rgb(255, 132, 0);"/>
  <text style="font-family: Arial, sans-serif; font-size: 14.1px; white-space: pre;" transform="matrix(1.43367, 0, 0, 1.41247, -330.665863, -16.889669)" x="303.494" y="54.19">3.3V</text>
  <text style="fill: rgb(104, 104, 104); font-family: Arial, sans-serif; font-size: 14.1px; white-space: pre;" x="322.382" y="72.575" transform="matrix(0.881301, 0, 0, 0.730573, -179.818939, 20.534605)">Power</text>
  <path d="M 788 136 m -8.24 0 a 8.24 8.24 0 1 0 16.48 0 a 8.24 8.24 0 1 0 -16.48 0 Z M 788 136 m -4.844 0 a 4.844 4.844 0 0 1 9.688 0 a 4.844 4.844 0 0 1 -9.688 0 Z" style="fill: rgb(207, 180, 1); stroke-width: 2px;" transform="matrix(-0.588172, 0.808736, -0.808736, -0.588172, 609.521464, -498.102063)" bx:shape="ring 788 136 4.844 4.844 8.24 8.24 1@77eb386c"/>
  <path d="M 556 194 m -34.4 0 a 34.4 34.4 0 1 0 68.8 0 a 34.4 34.4 0 1 0 -68.8 0 Z M 556 194 m -27.863 0 a 27.863 27.863 0 0 1 55.726 0 a 27.863 27.863 0 0 1 -55.726 0 Z" style="fill: rgb(234, 0, 255);" transform="matrix(-0.731608, 0.681726, -0.681726, -0.731608, 746.057391, -100.11256)" bx:shape="ring 556 194 27.863 27.863 34.4 34.4 1@652645be"/>
  <text style="white-space: pre; fill: rgb(51, 51, 51); font-family: Arial, sans-serif; font-size: 32px;" x="198.146" y="148.143">3</text>
  <rect x="37.953" y="114.934" width="116.683" height="42.898" rx="4" ry="4" style="fill: rgb(234, 0, 255);"/>
  <text style="white-space: pre; fill: rgb(51, 51, 51); font-family: Arial, sans-serif; font-size: 14.1px;" x="303.494" y="54.19" transform="matrix(1.43367, 0, 0, 1.41247, -359.266724, 60.39695)">GPIO2</text>
  <text style="fill: rgb(104, 104, 104); font-family: Arial, sans-serif; font-size: 14.1px; white-space: pre;" x="322.382" y="72.575" transform="matrix(0.881301, 0, 0, 0.730573, -199.818939, 97.82122)">SDA1 I2C</text>
  <path d="M 788 136 m -8.24 0 a 8.24 8.24 0 1 0 16.48 0 a 8.24 8.24 0 1 0 -16.48 0 Z M 788 136 m -4.844 0 a 4.844 4.844 0 0 1 9.688 0 a 4.844 4.844 0 0 1 -9.688 0 Z" style="fill: rgb(207, 180, 1); stroke-width: 2px;" transform="matrix(-0.588172, 0.808736, -0.808736, -0.588172, 609.521464, -420.815442)" bx:shape="ring 788 136 4.844 4.844 8.24 8.24 1@77eb386c"/>
  <path d="M 556 194 m -34.4 0 a 34.4 34.4 0 1 0 68.8 0 a 34.4 34.4 0 1 0 -68.8 0 Z M 556 194 m -27.863 0 a 27.863 27.863 0 0 1 55.726 0 a 27.863 27.863 0 0 1 -55.726 0 Z" style="fill: rgb(234, 0, 255);" transform="matrix(-0.731608, 0.681726, -0.681726, -0.731608, 746.057391, -22.82608)" bx:shape="ring 556 194 27.863 27.863 34.4 34.4 1@652645be"/>
  <text style="white-space: pre; fill: rgb(51, 51, 51); font-family: Arial, sans-serif; font-size: 32px;" x="198.146" y="225.43">5</text>
  <rect x="37.953" y="192.221" width="116.683" height="42.898" rx="4" ry="4" style="fill: rgb(234, 0, 255);"/>
  <text style="white-space: pre; fill: rgb(51, 51, 51); font-family: Arial, sans-serif; font-size: 14.1px;" x="303.494" y="54.19" transform="matrix(1.43367, 0, 0, 1.41247, -359.266724, 137.683456)">GPIO3</text>
  <text style="fill: rgb(104, 104, 104); font-family: Arial, sans-serif; font-size: 14.1px; white-space: pre;" x="322.382" y="72.575" transform="matrix(0.881301, 0, 0, 0.730573, -199.818939, 175.107727)">SCL1 I2</text>
  <path d="M 788 136 m -8.24 0 a 8.24 8.24 0 1 0 16.48 0 a 8.24 8.24 0 1 0 -16.48 0 Z M 788 136 m -4.844 0 a 4.844 4.844 0 0 1 9.688 0 a 4.844 4.844 0 0 1 -9.688 0 Z" style="fill: rgb(207, 180, 1); stroke-width: 2px;" transform="matrix(-0.588172, 0.808736, -0.808736, -0.588172, 609.521464, -343.528913)" bx:shape="ring 788 136 4.844 4.844 8.24 8.24 1@77eb386c"/>
  <path d="M 556 194 m -34.4 0 a 34.4 34.4 0 1 0 68.8 0 a 34.4 34.4 0 1 0 -68.8 0 Z M 556 194 m -27.863 0 a 27.863 27.863 0 0 1 55.726 0 a 27.863 27.863 0 0 1 -55.726 0 Z" style="fill: rgb(0, 149, 7);" transform="matrix(-0.731608, 0.681726, -0.681726, -0.731608, 746.057391, 54.460541)" bx:shape="ring 556 194 27.863 27.863 34.4 34.4 1@652645be"/>
  <text style="white-space: pre; fill: rgb(51, 51, 51); font-family: Arial, sans-serif; font-size: 32px;" x="198.146" y="302.716">7</text>
  <rect x="37.953" y="269.507" width="116.683" height="42.898" rx="4" ry="4" style="fill: rgb(0, 149, 7);"/>
  <text style="white-space: pre; fill: rgb(51, 51, 51); font-family: Arial, sans-serif; font-size: 14.1px;" x="303.494" y="54.19" transform="matrix(1.43367, 0, 0, 1.41247, -359.266724, 214.970078)">GPIO4</text>
  <path d="M 788 136 m -8.24 0 a 8.24 8.24 0 1 0 16.48 0 a 8.24 8.24 0 1 0 -16.48 0 Z M 788 136 m -4.844 0 a 4.844 4.844 0 0 1 9.688 0 a 4.844 4.844 0 0 1 -9.688 0 Z" style="fill: rgb(207, 180, 1); stroke-width: 2px;" transform="matrix(-0.588172, 0.808736, -0.808736, -0.588172, 609.521464, -266.242322)" bx:shape="ring 788 136 4.844 4.844 8.24 8.24 1@77eb386c"/>
  <path d="M 556 194 m -34.4 0 a 34.4 34.4 0 1 0 68.8 0 a 34.4 34.4 0 1 0 -68.8 0 Z M 556 194 m -27.863 0 a 27.863 27.863 0 0 1 55.726 0 a 27.863 27.863 0 0 1 -55.726 0 Z" style="fill: rgb(216, 216, 216);" transform="matrix(-0.731608, 0.681726, -0.681726, -0.731608, 746.057391, 131.747418)" bx:shape="ring 556 194 27.863 27.863 34.4 34.4 1@652645be"/>
  <text style="white-space: pre; fill: rgb(51, 51, 51); font-family: Arial, sans-serif; font-size: 32px;" x="198.146" y="380.003">9</text>
  <rect x="37.953" y="346.794" width="116.683" height="42.898" rx="4" ry="4" style="fill: rgb(216, 216, 216);"/>
  <text style="white-space: pre; fill: rgb(51, 51, 51); font-family: Arial, sans-serif; font-size: 14.1px;" x="303.494" y="54.19" transform="matrix(1.43367, 0, 0, 1.41247, -359.266724, 292.256561)">Ground</text>
  <path d="M 788 136 m -8.24 0 a 8.24 8.24 0 1 0 16.48 0 a 8.24 8.24 0 1 0 -16.48 0 Z M 788 136 m -4.844 0 a 4.844 4.844 0 0 1 9.688 0 a 4.844 4.844 0 0 1 -9.688 0 Z" style="fill: rgb(207, 180, 1); stroke-width: 2px;" transform="matrix(-0.588172, 0.808736, -0.808736, -0.588172, 609.521464, -188.956739)" bx:shape="ring 788 136 4.844 4.844 8.24 8.24 1@77eb386c"/>
  <path d="M 556 194 m -34.4 0 a 34.4 34.4 0 1 0 68.8 0 a 34.4 34.4 0 1 0 -68.8 0 Z M 556 194 m -27.863 0 a 27.863 27.863 0 0 1 55.726 0 a 27.863 27.863 0 0 1 -55.726 0 Z" style="fill: rgb(0, 149, 7);" transform="matrix(-0.731608, 0.681726, -0.681726, -0.731608, 746.057391, 209.034039)" bx:shape="ring 556 194 27.863 27.863 34.4 34.4 1@652645be"/>
  <text style="white-space: pre; fill: rgb(51, 51, 51); font-family: Arial, sans-serif; font-size: 32px;" x="188.146" y="457.289">11</text>
  <rect x="37.953" y="424.08" width="116.683" height="42.898" rx="4" ry="4" style="fill: rgb(0, 149, 7);"/>
  <text style="white-space: pre; fill: rgb(51, 51, 51); font-family: Arial, sans-serif; font-size: 14.1px;" x="303.494" y="54.19" transform="matrix(1.43367, 0, 0, 1.41247, -359.266724, 369.543182)">GPIO17</text>
  <path d="M 788 136 m -8.24 0 a 8.24 8.24 0 1 0 16.48 0 a 8.24 8.24 0 1 0 -16.48 0 Z M 788 136 m -4.844 0 a 4.844 4.844 0 0 1 9.688 0 a 4.844 4.844 0 0 1 -9.688 0 Z" style="fill: rgb(207, 180, 1); stroke-width: 2px;" transform="matrix(-0.588172, 0.808736, -0.808736, -0.588172, 609.521464, -111.670118)" bx:shape="ring 788 136 4.844 4.844 8.24 8.24 1@77eb386c"/>
  <path d="M 556 194 m -34.4 0 a 34.4 34.4 0 1 0 68.8 0 a 34.4 34.4 0 1 0 -68.8 0 Z M 556 194 m -27.863 0 a 27.863 27.863 0 0 1 55.726 0 a 27.863 27.863 0 0 1 -55.726 0 Z" style="fill: rgb(0, 149, 7);" transform="matrix(-0.731608, 0.681726, -0.681726, -0.731608, 746.057391, 286.319103)" bx:shape="ring 556 194 27.863 27.863 34.4 34.4 1@652645be"/>
  <text style="white-space: pre; fill: rgb(51, 51, 51); font-family: Arial, sans-serif; font-size: 32px;" x="188.146" y="534.576">13</text>
  <rect x="37.953" y="501.367" width="116.683" height="42.898" rx="4" ry="4" style="fill: rgb(0, 149, 7);"/>
  <text style="white-space: pre; fill: rgb(51, 51, 51); font-family: Arial, sans-serif; font-size: 14.1px;" x="303.494" y="54.19" transform="matrix(1.43367, 0, 0, 1.41247, -359.266724, 446.829803)">GPIO27</text>
  <path d="M 788 136 m -8.24 0 a 8.24 8.24 0 1 0 16.48 0 a 8.24 8.24 0 1 0 -16.48 0 Z M 788 136 m -4.844 0 a 4.844 4.844 0 0 1 9.688 0 a 4.844 4.844 0 0 1 -9.688 0 Z" style="fill: rgb(207, 180, 1); stroke-width: 2px;" transform="matrix(-0.588172, 0.808736, -0.808736, -0.588172, 609.521464, -34.383268)" bx:shape="ring 788 136 4.844 4.844 8.24 8.24 1@77eb386c"/>
  <path d="M 556 194 m -34.4 0 a 34.4 34.4 0 1 0 68.8 0 a 34.4 34.4 0 1 0 -68.8 0 Z M 556 194 m -27.863 0 a 27.863 27.863 0 0 1 55.726 0 a 27.863 27.863 0 0 1 -55.726 0 Z" style="fill: rgb(0, 149, 7);" transform="matrix(-0.731608, 0.681726, -0.681726, -0.731608, 746.057391, 363.605602)" bx:shape="ring 556 194 27.863 27.863 34.4 34.4 1@652645be"/>
  <text style="white-space: pre; fill: rgb(51, 51, 51); font-family: Arial, sans-serif; font-size: 32px;" x="188.146" y="611.862">15</text>
  <rect x="37.953" y="578.653" width="116.683" height="42.898" rx="4" ry="4" style="fill: rgb(0, 149, 7);"/>
  <text style="white-space: pre; fill: rgb(51, 51, 51); font-family: Arial, sans-serif; font-size: 14.1px;" x="303.494" y="54.19" transform="matrix(1.43367, 0, 0, 1.41247, -359.266724, 524.116272)">GPIO22</text>
  <path d="M 788 136 m -8.24 0 a 8.24 8.24 0 1 0 16.48 0 a 8.24 8.24 0 1 0 -16.48 0 Z M 788 136 m -4.844 0 a 4.844 4.844 0 0 1 9.688 0 a 4.844 4.844 0 0 1 -9.688 0 Z" style="fill: rgb(207, 180, 1); stroke-width: 2px;" transform="matrix(-0.588172, 0.808736, -0.808736, -0.588172, 609.521464, 42.903231)" bx:shape="ring 788 136 4.844 4.844 8.24 8.24 1@77eb386c"/>
  <path d="M 556 194 m -34.4 0 a 34.4 34.4 0 1 0 68.8 0 a 34.4 34.4 0 1 0 -68.8 0 Z M 556 194 m -27.863 0 a 27.863 27.863 0 0 1 55.726 0 a 27.863 27.863 0 0 1 -55.726 0 Z" style="fill: rgb(255, 132, 0);" transform="matrix(-0.731608, 0.681726, -0.681726, -0.731608, 746.057391, 440.892132)" bx:shape="ring 556 194 27.863 27.863 34.4 34.4 1@652645be"/>
  <text style="white-space: pre; fill: rgb(51, 51, 51); font-family: Arial, sans-serif; font-size: 32px;" x="188.146" y="689.149">17</text>
  <rect x="37.953" y="655.94" width="116.683" height="42.898" rx="4" ry="4" style="fill: rgb(255, 132, 0);"/>
  <text style="font-family: Arial, sans-serif; font-size: 14.1px; white-space: pre;" transform="matrix(1.43367, 0, 0, 1.41247, -333.266724, 601.402832)" x="303.494" y="54.19">3.3V</text>
  <text style="fill: rgb(104, 104, 104); font-family: Arial, sans-serif; font-size: 14.1px; white-space: pre;" x="322.382" y="72.575" transform="matrix(0.881301, 0, 0, 0.730573, -179.818939, 638.827148)">Power</text>
  <path d="M 788 136 m -8.24 0 a 8.24 8.24 0 1 0 16.48 0 a 8.24 8.24 0 1 0 -16.48 0 Z M 788 136 m -4.844 0 a 4.844 4.844 0 0 1 9.688 0 a 4.844 4.844 0 0 1 -9.688 0 Z" style="fill: rgb(207, 180, 1); stroke-width: 2px;" transform="matrix(-0.588172, 0.808736, -0.808736, -0.588172, 609.521464, 120.189563)" bx:shape="ring 788 136 4.844 4.844 8.24 8.24 1@77eb386c"/>
  <path d="M 556 194 m -34.4 0 a 34.4 34.4 0 1 0 68.8 0 a 34.4 34.4 0 1 0 -68.8 0 Z M 556 194 m -27.863 0 a 27.863 27.863 0 0 1 55.726 0 a 27.863 27.863 0 0 1 -55.726 0 Z" style="fill: rgb(17, 21, 255);" transform="matrix(-0.731608, 0.681726, -0.681726, -0.731608, 746.057391, 518.178723)" bx:shape="ring 556 194 27.863 27.863 34.4 34.4 1@652645be"/>
  <text style="white-space: pre; fill: rgb(51, 51, 51); font-family: Arial, sans-serif; font-size: 32px;" x="188.146" y="766.435">19</text>
  <rect x="37.953" y="733.226" width="116.683" height="42.898" rx="4" ry="4" style="fill: rgb(17, 21, 255);"/>
  <text style="fill: rgb(243, 243, 243); font-family: Arial, sans-serif; font-size: 14.1px; white-space: pre;" transform="matrix(1.43367, 0, 0, 1.41247, -359.266724, 678.689453)" x="303.494" y="54.19">GPIO10</text>
  <text style="fill: rgb(179, 179, 179); font-family: Arial, sans-serif; font-size: 14.1px; white-space: pre;" transform="matrix(0.881301, 0, 0, 0.730573, -209.818939, 716.113708)" x="322.382" y="72.575">SPI0_MOSI</text>
  <path d="M 788 136 m -8.24 0 a 8.24 8.24 0 1 0 16.48 0 a 8.24 8.24 0 1 0 -16.48 0 Z M 788 136 m -4.844 0 a 4.844 4.844 0 0 1 9.688 0 a 4.844 4.844 0 0 1 -9.688 0 Z" style="fill: rgb(207, 180, 1); stroke-width: 2px;" transform="matrix(-0.588172, 0.808736, -0.808736, -0.588172, 609.521464, 197.476123)" bx:shape="ring 788 136 4.844 4.844 8.24 8.24 1@77eb386c"/>
  <path d="M 556 194 m -34.4 0 a 34.4 34.4 0 1 0 68.8 0 a 34.4 34.4 0 1 0 -68.8 0 Z M 556 194 m -27.863 0 a 27.863 27.863 0 0 1 55.726 0 a 27.863 27.863 0 0 1 -55.726 0 Z" style="fill: rgb(17, 21, 255);" transform="matrix(-0.731608, 0.681726, -0.681726, -0.731608, 745.64516, 594.211804)" bx:shape="ring 556 194 27.863 27.863 34.4 34.4 1@652645be"/>
  <text style="white-space: pre; fill: rgb(51, 51, 51); font-family: Arial, sans-serif; font-size: 32px;" x="187.734" y="842.469">21</text>
  <rect x="37.541" y="809.26" width="116.683" height="42.898" rx="4" ry="4" style="fill: rgb(17, 21, 255);"/>
  <text style="fill: rgb(243, 243, 243); font-family: Arial, sans-serif; font-size: 14.1px; white-space: pre;" transform="matrix(1.43367, 0, 0, 1.41247, -359.678894, 754.722473)" x="303.494" y="54.19">GPIO9</text>
  <text style="fill: rgb(179, 179, 179); font-family: Arial, sans-serif; font-size: 14.1px; white-space: pre;" transform="matrix(0.881301, 0, 0, 0.730573, -210.23111, 792.14679)" x="322.382" y="72.575">SPI0_MISO</text>
  <path d="M 788 136 m -8.24 0 a 8.24 8.24 0 1 0 16.48 0 a 8.24 8.24 0 1 0 -16.48 0 Z M 788 136 m -4.844 0 a 4.844 4.844 0 0 1 9.688 0 a 4.844 4.844 0 0 1 -9.688 0 Z" style="fill: rgb(207, 180, 1); stroke-width: 2px;" transform="matrix(-0.588172, 0.808736, -0.808736, -0.588172, 609.109294, 273.510119)" bx:shape="ring 788 136 4.844 4.844 8.24 8.24 1@77eb386c"/>
  <path d="M 556 194 m -34.4 0 a 34.4 34.4 0 1 0 68.8 0 a 34.4 34.4 0 1 0 -68.8 0 Z M 556 194 m -27.863 0 a 27.863 27.863 0 0 1 55.726 0 a 27.863 27.863 0 0 1 -55.726 0 Z" style="fill: rgb(17, 21, 255);" transform="matrix(-0.731608, 0.681726, -0.681726, -0.731608, 745.64516, 671.498364)" bx:shape="ring 556 194 27.863 27.863 34.4 34.4 1@652645be"/>
  <text style="white-space: pre; fill: rgb(51, 51, 51); font-family: Arial, sans-serif; font-size: 32px;" x="187.734" y="919.755">23</text>
  <rect x="37.541" y="886.546" width="116.683" height="42.898" rx="4" ry="4" style="fill: rgb(17, 21, 255);"/>
  <text style="fill: rgb(243, 243, 243); font-family: Arial, sans-serif; font-size: 14.1px; white-space: pre;" transform="matrix(1.43367, 0, 0, 1.41247, -359.678894, 832.009094)" x="303.494" y="54.19">GPIO11</text>
  <text style="fill: rgb(179, 179, 179); font-family: Arial, sans-serif; font-size: 14.1px; white-space: pre;" transform="matrix(0.881301, 0, 0, 0.730573, -210.23111, 869.43335)" x="322.382" y="72.575">SPIO_SCLK</text>
  <path d="M 788 136 m -8.24 0 a 8.24 8.24 0 1 0 16.48 0 a 8.24 8.24 0 1 0 -16.48 0 Z M 788 136 m -4.844 0 a 4.844 4.844 0 0 1 9.688 0 a 4.844 4.844 0 0 1 -9.688 0 Z" style="fill: rgb(207, 180, 1); stroke-width: 2px;" transform="matrix(-0.588172, 0.808736, -0.808736, -0.588172, 609.109294, 350.796679)" bx:shape="ring 788 136 4.844 4.844 8.24 8.24 1@77eb386c"/>
  <path d="M 556 194 m -34.4 0 a 34.4 34.4 0 1 0 68.8 0 a 34.4 34.4 0 1 0 -68.8 0 Z M 556 194 m -27.863 0 a 27.863 27.863 0 0 1 55.726 0 a 27.863 27.863 0 0 1 -55.726 0 Z" style="fill: rgb(216, 216, 216);" transform="matrix(-0.731608, 0.681726, -0.681726, -0.731608, 745.64516, 748.784924)" bx:shape="ring 556 194 27.863 27.863 34.4 34.4 1@652645be"/>
  <text style="white-space: pre; fill: rgb(51, 51, 51); font-family: Arial, sans-serif; font-size: 32px;" x="187.734" y="997.042">25</text>
  <rect x="37.541" y="963.833" width="116.683" height="42.898" rx="4" ry="4" style="fill: rgb(216, 216, 216);"/>
  <text style="white-space: pre; fill: rgb(51, 51, 51); font-family: Arial, sans-serif; font-size: 14.1px;" x="303.494" y="54.19" transform="matrix(1.43367, 0, 0, 1.41247, -359.678894, 909.295654)">Ground</text>
  <path d="M 788 136 m -8.24 0 a 8.24 8.24 0 1 0 16.48 0 a 8.24 8.24 0 1 0 -16.48 0 Z M 788 136 m -4.844 0 a 4.844 4.844 0 0 1 9.688 0 a 4.844 4.844 0 0 1 -9.688 0 Z" style="fill: rgb(207, 180, 1); stroke-width: 2px;" transform="matrix(-0.588172, 0.808736, -0.808736, -0.588172, 609.109294, 428.083239)" bx:shape="ring 788 136 4.844 4.844 8.24 8.24 1@77eb386c"/>
  <path d="M 556 194 m -34.4 0 a 34.4 34.4 0 1 0 68.8 0 a 34.4 34.4 0 1 0 -68.8 0 Z M 556 194 m -27.863 0 a 27.863 27.863 0 0 1 55.726 0 a 27.863 27.863 0 0 1 -55.726 0 Z" style="fill: rgb(255, 247, 0);" transform="matrix(-0.731608, 0.681726, -0.681726, -0.731608, 745.64516, 826.071484)" bx:shape="ring 556 194 27.863 27.863 34.4 34.4 1@652645be"/>
  <text style="white-space: pre; fill: rgb(51, 51, 51); font-family: Arial, sans-serif; font-size: 32px;" x="187.734" y="1074.328">27</text>
  <rect x="37.541" y="1041.119" width="116.683" height="42.898" rx="4" ry="4" style="fill: rgb(255, 247, 0);"/>
  <text style="white-space: pre; fill: rgb(51, 51, 51); font-family: Arial, sans-serif; font-size: 14.1px;" x="303.494" y="54.19" transform="matrix(1.43367, 0, 0, 1.41247, -359.678894, 986.582153)">ID_SD</text>
  <text style="fill: rgb(104, 104, 104); font-family: Arial, sans-serif; font-size: 14.1px; white-space: pre;" x="322.382" y="72.575" transform="matrix(0.881301, 0, 0, 0.730573, -235.23111, 1024.00647)">I2C ID EEPROM</text>
  <path d="M 788 136 m -8.24 0 a 8.24 8.24 0 1 0 16.48 0 a 8.24 8.24 0 1 0 -16.48 0 Z M 788 136 m -4.844 0 a 4.844 4.844 0 0 1 9.688 0 a 4.844 4.844 0 0 1 -9.688 0 Z" style="fill: rgb(207, 180, 1); stroke-width: 2px;" transform="matrix(-0.588172, 0.808736, -0.808736, -0.588172, 609.109294, 505.369799)" bx:shape="ring 788 136 4.844 4.844 8.24 8.24 1@77eb386c"/>
  <path d="M 556 194 m -34.4 0 a 34.4 34.4 0 1 0 68.8 0 a 34.4 34.4 0 1 0 -68.8 0 Z M 556 194 m -27.863 0 a 27.863 27.863 0 0 1 55.726 0 a 27.863 27.863 0 0 1 -55.726 0 Z" style="fill: rgb(0, 149, 7);" transform="matrix(-0.731608, 0.681726, -0.681726, -0.731608, 745.64516, 903.357983)" bx:shape="ring 556 194 27.863 27.863 34.4 34.4 1@652645be"/>
  <text style="white-space: pre; fill: rgb(51, 51, 51); font-family: Arial, sans-serif; font-size: 32px;" x="187.734" y="1151.615">29</text>
  <rect x="37.541" y="1118.406" width="116.683" height="42.898" rx="4" ry="4" style="fill: rgb(0, 149, 7);"/>
  <text style="white-space: pre; fill: rgb(51, 51, 51); font-family: Arial, sans-serif; font-size: 14.1px;" x="303.494" y="54.19" transform="matrix(1.43367, 0, 0, 1.41247, -359.678894, 1063.868652)">GPIO5</text>
  <path d="M 788 136 m -8.24 0 a 8.24 8.24 0 1 0 16.48 0 a 8.24 8.24 0 1 0 -16.48 0 Z M 788 136 m -4.844 0 a 4.844 4.844 0 0 1 9.688 0 a 4.844 4.844 0 0 1 -9.688 0 Z" style="fill: rgb(207, 180, 1); stroke-width: 2px;" transform="matrix(-0.588172, 0.808736, -0.808736, -0.588172, 609.109294, 582.654498)" bx:shape="ring 788 136 4.844 4.844 8.24 8.24 1@77eb386c"/>
  <path d="M 556 194 m -34.4 0 a 34.4 34.4 0 1 0 68.8 0 a 34.4 34.4 0 1 0 -68.8 0 Z M 556 194 m -27.863 0 a 27.863 27.863 0 0 1 55.726 0 a 27.863 27.863 0 0 1 -55.726 0 Z" style="fill: rgb(0, 149, 7);" transform="matrix(-0.731608, 0.681726, -0.681726, -0.731608, 745.64516, 980.644726)" bx:shape="ring 556 194 27.863 27.863 34.4 34.4 1@652645be"/>
  <text style="white-space: pre; fill: rgb(51, 51, 51); font-family: Arial, sans-serif; font-size: 32px;" x="187.734" y="1228.901">31</text>
  <rect x="37.541" y="1195.692" width="116.683" height="42.898" rx="4" ry="4" style="fill: rgb(0, 149, 7);"/>
  <text style="white-space: pre; fill: rgb(51, 51, 51); font-family: Arial, sans-serif; font-size: 14.1px;" x="303.494" y="54.19" transform="matrix(1.43367, 0, 0, 1.41247, -359.678894, 1141.155396)">GPIO6</text>
  <path d="M 788 136 m -8.24 0 a 8.24 8.24 0 1 0 16.48 0 a 8.24 8.24 0 1 0 -16.48 0 Z M 788 136 m -4.844 0 a 4.844 4.844 0 0 1 9.688 0 a 4.844 4.844 0 0 1 -9.688 0 Z" style="fill: rgb(207, 180, 1); stroke-width: 2px;" transform="matrix(-0.588172, 0.808736, -0.808736, -0.588172, 609.109294, 659.941241)" bx:shape="ring 788 136 4.844 4.844 8.24 8.24 1@77eb386c"/>
  <path d="M 556 194 m -34.4 0 a 34.4 34.4 0 1 0 68.8 0 a 34.4 34.4 0 1 0 -68.8 0 Z M 556 194 m -27.863 0 a 27.863 27.863 0 0 1 55.726 0 a 27.863 27.863 0 0 1 -55.726 0 Z" style="fill: rgb(0, 149, 7);" transform="matrix(-0.731608, 0.681726, -0.681726, -0.731608, 745.64516, 1057.937451)" bx:shape="ring 556 194 27.863 27.863 34.4 34.4 1@652645be"/>
  <text style="white-space: pre; fill: rgb(51, 51, 51); font-family: Arial, sans-serif; font-size: 32px;" x="187.734" y="1306.188">33</text>
  <rect x="37.541" y="1272.979" width="116.683" height="42.898" rx="4" ry="4" style="fill: rgb(0, 149, 7);"/>
  <text style="white-space: pre; fill: rgb(51, 51, 51); font-family: Arial, sans-serif; font-size: 14.1px;" x="303.494" y="54.19" transform="matrix(1.43367, 0, 0, 1.41247, -359.678894, 1218.441895)">GPIO13</text>
  <path d="M 788 136 m -8.24 0 a 8.24 8.24 0 1 0 16.48 0 a 8.24 8.24 0 1 0 -16.48 0 Z M 788 136 m -4.844 0 a 4.844 4.844 0 0 1 9.688 0 a 4.844 4.844 0 0 1 -9.688 0 Z" style="fill: rgb(207, 180, 1); stroke-width: 2px;" transform="matrix(-0.588172, 0.808736, -0.808736, -0.588172, 609.109294, 737.22774)" bx:shape="ring 788 136 4.844 4.844 8.24 8.24 1@77eb386c"/>
  <path d="M 556 194 m -34.4 0 a 34.4 34.4 0 1 0 68.8 0 a 34.4 34.4 0 1 0 -68.8 0 Z M 556 194 m -27.863 0 a 27.863 27.863 0 0 1 55.726 0 a 27.863 27.863 0 0 1 -55.726 0 Z" style="fill: rgb(0, 149, 7);" transform="matrix(-0.731608, 0.681726, -0.681726, -0.731608, 745.64516, 1135.224072)" bx:shape="ring 556 194 27.863 27.863 34.4 34.4 1@652645be"/>
  <text style="white-space: pre; fill: rgb(51, 51, 51); font-family: Arial, sans-serif; font-size: 32px;" x="187.734" y="1383.475">35</text>
  <rect x="37.541" y="1350.266" width="116.683" height="42.898" rx="4" ry="4" style="fill: rgb(0, 149, 7);"/>
  <text style="white-space: pre; fill: rgb(51, 51, 51); font-family: Arial, sans-serif; font-size: 14.1px;" x="303.494" y="54.19" transform="matrix(1.43367, 0, 0, 1.41247, -359.678894, 1295.728516)">GPIO19</text>
  <path d="M 788 136 m -8.24 0 a 8.24 8.24 0 1 0 16.48 0 a 8.24 8.24 0 1 0 -16.48 0 Z M 788 136 m -4.844 0 a 4.844 4.844 0 0 1 9.688 0 a 4.844 4.844 0 0 1 -9.688 0 Z" style="fill: rgb(207, 180, 1); stroke-width: 2px;" transform="matrix(-0.588172, 0.808736, -0.808736, -0.588172, 609.109294, 814.514361)" bx:shape="ring 788 136 4.844 4.844 8.24 8.24 1@77eb386c"/>
  <path d="M 556 194 m -34.4 0 a 34.4 34.4 0 1 0 68.8 0 a 34.4 34.4 0 1 0 -68.8 0 Z M 556 194 m -27.863 0 a 27.863 27.863 0 0 1 55.726 0 a 27.863 27.863 0 0 1 -55.726 0 Z" style="fill: rgb(0, 149, 7);" transform="matrix(-0.731608, 0.681726, -0.681726, -0.731608, 745.64516, 1212.510571)" bx:shape="ring 556 194 27.863 27.863 34.4 34.4 1@652645be"/>
  <text style="white-space: pre; fill: rgb(51, 51, 51); font-family: Arial, sans-serif; font-size: 32px;" x="187.734" y="1460.761">37</text>
  <rect x="37.541" y="1427.552" width="116.683" height="42.898" rx="4" ry="4" style="fill: rgb(0, 149, 7);"/>
  <text style="white-space: pre; fill: rgb(51, 51, 51); font-family: Arial, sans-serif; font-size: 14.1px;" x="303.494" y="54.19" transform="matrix(1.43367, 0, 0, 1.41247, -359.678894, 1373.015015)">GPIO26</text>
  <path d="M 788 136 m -8.24 0 a 8.24 8.24 0 1 0 16.48 0 a 8.24 8.24 0 1 0 -16.48 0 Z M 788 136 m -4.844 0 a 4.844 4.844 0 0 1 9.688 0 a 4.844 4.844 0 0 1 -9.688 0 Z" style="fill: rgb(207, 180, 1); stroke-width: 2px;" transform="matrix(-0.588172, 0.808736, -0.808736, -0.588172, 609.109294, 891.800799)" bx:shape="ring 788 136 4.844 4.844 8.24 8.24 1@77eb386c"/>
  <path d="M 556 194 m -34.4 0 a 34.4 34.4 0 1 0 68.8 0 a 34.4 34.4 0 1 0 -68.8 0 Z M 556 194 m -27.863 0 a 27.863 27.863 0 0 1 55.726 0 a 27.863 27.863 0 0 1 -55.726 0 Z" style="fill: rgb(216, 216, 216);" transform="matrix(-0.731608, 0.681726, -0.681726, -0.731608, 745.64516, 1289.79707)" bx:shape="ring 556 194 27.863 27.863 34.4 34.4 1@652645be"/>
  <text style="white-space: pre; fill: rgb(51, 51, 51); font-family: Arial, sans-serif; font-size: 32px;" x="187.734" y="1538.048">39</text>
  <rect x="37.541" y="1504.839" width="116.683" height="42.898" rx="4" ry="4" style="fill: rgb(216, 216, 216);"/>
  <text style="white-space: pre; fill: rgb(51, 51, 51); font-family: Arial, sans-serif; font-size: 14.1px;" x="303.494" y="54.19" transform="matrix(1.43367, 0, 0, 1.41247, -359.678894, 1450.301514)">Ground</text>
  <path d="M 788 136 m -8.24 0 a 8.24 8.24 0 1 0 16.48 0 a 8.24 8.24 0 1 0 -16.48 0 Z M 788 136 m -4.844 0 a 4.844 4.844 0 0 1 9.688 0 a 4.844 4.844 0 0 1 -9.688 0 Z" style="fill: rgb(207, 180, 1); stroke-width: 2px;" transform="matrix(-0.588172, 0.808736, -0.808736, -0.588172, 609.109294, 969.087359)" bx:shape="ring 788 136 4.844 4.844 8.24 8.24 1@77eb386c"/>
  <rect x="180.908" y="31.37" width="56.395" height="54.971" style="stroke: rgb(255, 132, 0); stroke-width: 5px; fill: none;"/>
  <text style="fill: rgb(104, 104, 104); font-family: Arial, sans-serif; font-size: 14.1px; white-space: pre;" x="322.382" y="72.575" transform="matrix(0.881301, 0, 0, 0.730573, -183.952545, 252.86348)">1-WIRE</text>
</svg>